<svg width="1273" height="727" viewBox="0 0 1273 727" fill="none" xmlns="http://www.w3.org/2000/svg">
<path d="M1137 106C1137 103.791 1135.21 102 1133 102H1125C1122.79 102 1121 103.791 1121 106V118H1109C1106.79 118 1105 119.791 1105 122V130C1105 132.209 1106.79 134 1109 134H1121V146C1121 148.209 1122.79 150 1125 150H1133C1135.21 150 1137 148.209 1137 146V134H1149C1151.21 134 1153 132.209 1153 130V122C1153 119.791 1151.21 118 1149 118H1137V106Z" fill="#FF2800"/>
<path d="M120 571C120 568.791 118.209 567 116 567H112C109.791 567 108 568.791 108 571V579H100C97.7909 579 96 580.791 96 583V587C96 589.209 97.7909 591 100 591H108V599C108 601.209 109.791 603 112 603H116C118.209 603 120 601.209 120 599V591H128C130.209 591 132 589.209 132 587V583C132 580.791 130.209 579 128 579H120V571Z" fill="#FF2800"/>
<path d="M21.3333 13L0.0833435 25.2687L0.0833446 0.731323L21.3333 13Z" fill="#FF2800"/>
<path d="M78 13L56.75 25.2687V0.731323L78 13Z" fill="#FF2800"/>
<path d="M1245 710.5L1272.75 726.521V694.479L1245 710.5Z" fill="#FF2800"/>
<path d="M1171 710.5L1198.75 726.521V694.479L1171 710.5Z" fill="#FF2800"/>
<path d="M263 101.5C263 112.27 254.27 121 243.5 121C232.73 121 224 112.27 224 101.5C224 90.7305 232.73 82 243.5 82C254.27 82 263 90.7305 263 101.5Z" fill="#FF2800"/>
<path d="M766 27.5C766 38.2696 757.27 47 746.5 47C735.73 47 727 38.2696 727 27.5C727 16.7305 735.73 8.00002 746.5 8.00002C757.27 8.00002 766 16.7305 766 27.5Z" fill="#FF2800"/>
<path d="M145 317.5C145 321.09 142.09 324 138.5 324C134.91 324 132 321.09 132 317.5C132 313.91 134.91 311 138.5 311C142.09 311 145 313.91 145 317.5Z" fill="#FF2800"/>
<path d="M1164 359.5C1164 363.09 1161.09 366 1157.5 366C1153.91 366 1151 363.09 1151 359.5C1151 355.91 1153.91 353 1157.5 353C1161.09 353 1164 355.91 1164 359.5Z" fill="#FF2800"/>
<path d="M957 149.5C957 153.09 954.09 156 950.5 156C946.91 156 944 153.09 944 149.5C944 145.91 946.91 143 950.5 143C954.09 143 957 145.91 957 149.5Z" fill="#FF2800"/>
<path d="M915 678.5C915 685.956 908.956 692 901.5 692C894.044 692 888 685.956 888 678.5C888 671.044 894.044 665 901.5 665C908.956 665 915 671.044 915 678.5Z" fill="#FF2800"/>
</svg>
